<?xml version="1.0" standalone="no"?>
<!DOCTYPE svg PUBLIC "-//W3C//DTD SVG 1.1//EN" "http://www.w3.org/Graphics/SVG/1.1/DTD/svg11.dtd">
<svg t="1678869118373" class="icon" viewBox="0 0 1024 1024" version="1.1" xmlns="http://www.w3.org/2000/svg" p-id="12755" xmlns:xlink="http://www.w3.org/1999/xlink" width="32" height="32">
    <path d="M512 0C229.248 0 0 229.248 0 512s229.248 512 512 512 512-229.248 512-512S794.752 0 512 0zM512 128c212.032 0 384 171.968 384 384s-171.968 384-384 384-384-171.968-384-384S299.968 128 512 128zM749.312 466.752C761.792 479.232 768.064 495.616 768.064 512s-6.272 32.768-18.752 45.248l-128 128c-18.304 18.304-45.888 23.744-69.824 13.888C527.616 689.28 512 665.856 512 640L512 576 320 576C284.608 576 256 547.392 256 512s28.608-64 64-64l192 0L512 384c0-25.856 15.616-49.28 39.488-59.136 24-9.856 51.52-4.352 69.824 13.888L749.312 466.752z"  p-id="12756" data-spm-anchor-id="a313x.7781069.0.i0" class="">
</path>
</svg>