<?xml version="1.0" standalone="no"?><!DOCTYPE svg PUBLIC "-//W3C//DTD SVG 1.1//EN" "http://www.w3.org/Graphics/SVG/1.1/DTD/svg11.dtd"><svg t="1681459996892" class="icon" viewBox="0 0 1024 1024" version="1.1" xmlns="http://www.w3.org/2000/svg" p-id="8076" xmlns:xlink="http://www.w3.org/1999/xlink" width="128" height="128"><path d="M489.984 39.424c12.288-7.168 27.136-8.192 40.448-2.048l3.584 2.048 376.32 217.6c12.288 7.168 20.48 19.968 22.016 34.304v438.784c0 14.336-7.168 27.648-18.944 35.84l-3.072 2.048-376.32 217.6c-12.288 7.168-27.136 8.192-40.448 2.048l-3.584-2.048L113.664 768c-12.288-7.168-20.48-19.968-22.016-34.304V294.4c0-14.336 7.168-27.648 18.944-35.84l3.072-2.048L489.984 39.424z m22.016 87.552L404.48 188.928l126.976 69.632c20.992 11.264 28.672 37.888 17.408 58.88-10.752 19.968-35.328 28.16-56.32 18.944l-3.072-1.536-174.08-94.72-136.704 79.872v385.024l289.792 167.424v-335.36L297.472 437.248C276.48 424.96 269.824 398.336 281.6 377.344c11.264-19.968 36.352-27.136 56.832-17.408l3.072 1.536 171.52 99.84L806.912 296.96 512 126.976z m333.312 248.32l-289.792 161.792v334.336l289.792-167.424V375.296z" p-id="8077"></path></svg>