<svg t="1681022172940" class="icon" viewBox="0 0 1332 1024" version="1.1" xmlns="http://www.w3.org/2000/svg" p-id="4281"
     width="200" height="200">
  <path
    d="M716.212315 1023.7755H51.299846A52.252343 52.252343 0 0 1 0.001628 971.354782V52.476843A52.083968 52.083968 0 0 1 50.850847 0h0.729624Q665.755971 0.33675 1279.650847 0c34.011729 0 52.140093 18.296739 52.140093 52.196218v920.449438c0 34.797479-17.903864 51.915593-53.711592 51.129844-51.017594-1.178624-153.052782 0-153.052782 0z m389.058263-92.774568h113.035681c20.822362 0 20.822362 0 20.822362-20.710113V114.663305c0-21.664237 0-21.664237-21.102987-21.664237H110.68006c-18.745739 0-18.801864 0-18.801863 18.801864v799.331762c0 19.643738 0 19.699863 19.250863 19.699863h606.935379z"
    p-id="4282"></path>
  <path
    d="M583.701271 326.759551H318.566933c-28.567608 0-47.088846-14.592491-51.634968-39.568101a45.685722 45.685722 0 0 1 36.705727-52.757468 169.609646 169.609646 0 0 1 27.164484-1.908249h504.282817a192.901507 192.901507 0 0 1 22.057111 1.122499c29.241107 3.311373 44.899973 20.990737 44.058099 48.940971-0.897999 25.143985-20.710112 43.665223-48.491971 44.058098-32.945355 0.505125-65.834585 0-98.77994 0zM466.624593 558.331159H315.872935c-29.465607 0-50.512469-19.419238-50.17572-46.246972S286.575703 465.837216 315.03106 465.837216q152.716032-0.33675 305.432064 0a46.920471 46.920471 0 0 1 48.82872 46.864346c0 26.434859-20.766237 45.685722-49.27772 45.741847q-76.666703 0-153.389531-0.11225zM426.551367 792.035517c-37.659852 0-75.319704 0.33675-112.979556 0a47.257221 47.257221 0 0 1-44.899972-31.149356 46.471472 46.471472 0 0 1 13.469991-50.51247 43.384599 43.384599 0 0 1 24.582735-10.663743 748.426418 748.426418 0 0 1 75.263579-1.346999h142.894163c7.352371 0 14.760866 0.33675 22.057112 1.122499 28.062483 2.862373 45.292847 21.776487 44.563223 47.706221a46.695971 46.695971 0 0 1-47.762346 44.899973c-39.006851 0.392875-77.901452-0.056125-117.188929-0.056125z"
    p-id="4283"></path>
</svg>