<?xml version="1.0" standalone="no"?><!DOCTYPE svg PUBLIC "-//W3C//DTD SVG 1.1//EN" "http://www.w3.org/Graphics/SVG/1.1/DTD/svg11.dtd"><svg t="1679118198132" class="icon" viewBox="0 0 1024 1024" version="1.1" xmlns="http://www.w3.org/2000/svg" p-id="8781" xmlns:xlink="http://www.w3.org/1999/xlink" width="32" height="32"><path d="M685.5 512L924 273.5c47.9-47.9 47.9-125.6 0-173.5-47.8-48-125.5-48-173.4-0.1L512 338.4 273.4 99.9C225.5 52 147.8 52 99.9 99.9 52 147.8 52 225.5 99.9 273.4L338.5 512 99.9 750.5C52 798.5 52 876.1 99.9 924c47.9 47.9 125.6 47.9 173.5 0L512 685.5 750.6 924c47.9 47.9 125.6 47.9 173.5 0 47.9-47.9 47.9-125.6 0-173.6L685.5 512z"  p-id="8782"></path></svg>