<?xml version="1.0" standalone="no"?><!DOCTYPE svg PUBLIC "-//W3C//DTD SVG 1.1//EN" "http://www.w3.org/Graphics/SVG/1.1/DTD/svg11.dtd"><svg t="1681460653214" class="icon" viewBox="0 0 1024 1024" version="1.1" xmlns="http://www.w3.org/2000/svg" p-id="31319" xmlns:xlink="http://www.w3.org/1999/xlink" width="128" height="128"><path d="M960 928V679.4c19.1-11.1 32-31.7 32-55.4 0-35.3-28.7-64-64-64s-64 28.7-64 64c0 23.7 12.9 44.3 32 55.4v38.2c-53.8 29.7-114.3 45.3-176 45.3s-122.2-15.6-176-45.3v-38.2c19.1-11.1 32-31.7 32-55.4 0-35.3-28.7-64-64-64s-64 28.7-64 64c0 23.7 12.9 44.3 32 55.4v38.2c-53.8 29.7-114.3 45.3-176 45.3s-122.2-15.6-176-45.3v-38.2c19.1-11.1 32-31.7 32-55.4 0-35.3-28.7-64-64-64s-64 28.7-64 64c0 23.7 12.9 44.3 32 55.4V928H0v64h1024v-64h-64z m-480 0H128V789.1c55.1 24.8 115.1 37.8 176 37.8s120.9-13 176-37.8V928z m416 0H544V789.1c55.1 24.8 115.1 37.8 176 37.8s120.9-13 176-37.8V928zM288 124l-96-72v440l96-72zM805.3 512l-106.6-80H325.3l-106.6 80zM698.7 112l106.6-80H218.7l106.6 80zM832 52l-96 72v296l96 72zM320 328.4V400h384V148.4c-15.8 3-28.7 9.4-35.3 18.7-33.5 46.8-22.9 165-178.2 117.4-87.5-26.8-140.7 8.2-170.5 43.9z"  p-id="31320"></path><path d="M544 192m-48 0a48 48 0 1 0 96 0 48 48 0 1 0-96 0Z"  p-id="31321"></path></svg>