<svg t="1684591182610" class="icon" viewBox="0 0 1024 1024" version="1.1" xmlns="http://www.w3.org/2000/svg" p-id="6960"
     width="200" height="200">
  <path
    d="M927.0272 812.1344l-37.4272-475.648c-6.0928-77.5168-76.544-138.24-160.3584-138.24h-26.1632C684.3392 112.3328 604.5184 47.616 509.0816 47.616S333.8752 112.3328 315.136 198.1952h-26.1632c-83.8144 0-154.2656 60.7744-160.3584 138.24l-37.4272 475.648a141.5168 141.5168 0 0 0 38.2464 107.9296 166.2464 166.2464 0 0 0 122.0608 52.0704h515.2256a166.2464 166.2464 0 0 0 122.0608-52.0704 141.5168 141.5168 0 0 0 38.2464-107.8784zM509.0816 98.816c66.56 0 123.2384 42.0352 141.056 99.3792H368.0768C385.8944 140.8512 442.368 98.816 509.0816 98.816z m342.0672 786.4832a114.7392 114.7392 0 0 1-84.4288 35.84H251.4944a114.6368 114.6368 0 0 1-84.4288-35.84 90.5216 90.5216 0 0 1-24.832-69.1712l37.4272-475.648c4.0448-51.2 52.0192-91.0848 109.312-91.0848h21.9648v117.76a25.6 25.6 0 1 0 51.2 0v-117.76h293.9392v117.76a25.6 25.6 0 0 0 51.2 0v-117.76h21.9648c57.2928 0 105.2672 40.0384 109.312 91.0848l37.4272 475.648a90.5216 90.5216 0 0 1-24.832 69.1712z"
    p-id="6961"></path>
</svg>