<?xml version="1.0" standalone="no"?><!DOCTYPE svg PUBLIC "-//W3C//DTD SVG 1.1//EN" "http://www.w3.org/Graphics/SVG/1.1/DTD/svg11.dtd"><svg t="1684726831221" class="icon" viewBox="0 0 1024 1024" version="1.1" xmlns="http://www.w3.org/2000/svg" p-id="26646" data-spm-anchor-id="a313x.7781069.0.i4" xmlns:xlink="http://www.w3.org/1999/xlink" width="128" height="128"><path d="M489.1648 944.4352H226.6624c-41.5744 0-75.3664-33.792-75.3664-75.3664V255.232c0-41.5744 33.792-75.3664 75.3664-75.3664h29.9008c14.1312 0 25.6 11.4688 25.6 25.6s-11.4688 25.6-25.6 25.6h-29.9008c-13.312 0-24.1664 10.8544-24.1664 24.1664v613.888c0 13.312 10.8544 24.1664 24.1664 24.1664h262.5024c14.1312 0 25.6 11.4688 25.6 25.6s-11.4688 25.5488-25.6 25.5488zM822.4768 512.6656c-14.1312 0-25.6-11.4688-25.6-25.6V255.232c0-13.312-10.8544-24.1664-24.1664-24.1664h-28.5696c-14.1312 0-25.6-11.4688-25.6-25.6s11.4688-25.6 25.6-25.6h28.5696c41.5744 0 75.3664 33.792 75.3664 75.3664v231.8336c0 14.1312-11.4688 25.6-25.6 25.6z" fill="#ffffff" p-id="26647" data-spm-anchor-id="a313x.7781069.0.i5" class="selected"></path><path d="M653.1072 128.2048h-52.7872c-12.4416-43.9296-52.736-76.1856-100.6592-76.1856s-88.2176 32.2048-100.6592 76.1856h-52.736c-15.8208 0-28.6208 12.8-28.6208 28.6208v93.952c0 15.8208 12.8 28.6208 28.6208 28.6208h306.8416c15.8208 0 28.6208-12.8 28.6208-28.6208V156.8256c0.0512-15.8208-12.8-28.6208-28.6208-28.6208z" fill="#E16B02" p-id="26648"></path><path d="M499.712 129.3312m-32.4096 0a32.4096 32.4096 0 1 0 64.8192 0 32.4096 32.4096 0 1 0-64.8192 0Z" fill="#FFFFFF" p-id="26649"></path><path d="M657.5616 434.7392H460.8c-14.1312 0-25.6-11.4688-25.6-25.6s11.4688-25.6 25.6-25.6h196.7616c14.1312 0 25.6 11.4688 25.6 25.6s-11.4688 25.6-25.6 25.6zM326.6048 459.9296c-6.4 0-12.5952-2.4064-17.3568-6.7584l-49.408-45.568a25.63584 25.63584 0 0 1-1.4848-36.1984 25.64096 25.64096 0 0 1 36.1984-1.4848l28.672 26.4192 44.032-58.368c8.4992-11.264 24.576-13.5168 35.84-5.0176 11.264 8.4992 13.5168 24.576 5.0176 35.84l-61.0816 80.896a25.64096 25.64096 0 0 1-18.1248 10.0864c-0.768 0.1024-1.5872 0.1536-2.304 0.1536zM585.8816 597.9648H460.8c-14.1312 0-25.6-11.4688-25.6-25.6s11.4688-25.6 25.6-25.6h125.0816c14.1312 0 25.6 11.4688 25.6 25.6s-11.4688 25.6-25.6 25.6zM326.6048 623.2064c-6.4 0-12.5952-2.4064-17.3568-6.7584l-49.408-45.568a25.63584 25.63584 0 0 1-1.4848-36.1984 25.64096 25.64096 0 0 1 36.1984-1.4848l28.672 26.4192 44.032-58.368c8.4992-11.264 24.576-13.5168 35.84-5.0176 11.264 8.4992 13.5168 24.576 5.0176 35.84l-61.0816 80.896a25.64096 25.64096 0 0 1-18.1248 10.0864c-0.768 0.1024-1.5872 0.1536-2.304 0.1536zM505.5488 785.152H460.8c-14.1312 0-25.6-11.4688-25.6-25.6s11.4688-25.6 25.6-25.6h44.8c14.1312 0 25.6 11.4688 25.6 25.6s-11.52 25.6-25.6512 25.6zM326.6048 810.3424c-6.4 0-12.5952-2.4064-17.3568-6.7584l-49.408-45.568a25.63584 25.63584 0 0 1-1.4848-36.1984 25.64096 25.64096 0 0 1 36.1984-1.4848l28.672 26.4192 44.032-58.368c8.4992-11.264 24.576-13.5168 35.84-5.0176 11.264 8.4992 13.5168 24.576 5.0176 35.84l-61.0816 80.896a25.64096 25.64096 0 0 1-18.1248 10.0864c-0.768 0.1536-1.5872 0.1536-2.304 0.1536zM888.2688 945.2032h-292.7616c-14.1312 0-25.6-11.4688-25.6-25.6s11.4688-25.6 25.6-25.6h292.7616c14.1312 0 25.6 11.4688 25.6 25.6s-11.4688 25.6-25.6 25.6zM876.7488 766.6176h-66.6624c-4.352 0-8.192-2.6624-9.728-6.7072l-26.368-69.8368c29.5424-13.9264 49.152-45.4144 45.3632-80.9984-3.8912-36.7616-33.536-66.56-70.2976-70.6048-48.1792-5.3248-88.9856 32.256-88.9856 79.36 0 31.5904 18.3296 58.8288 44.9024 71.8336l-22.6816 69.7856a10.3424 10.3424 0 0 1-9.8816 7.168h-65.3312c-16.4352 0-29.696 13.312-29.696 29.696v55.3472c0 11.1616 9.0624 20.224 20.224 20.224h288.6656c11.1616 0 20.224-9.0624 20.224-20.224v-55.3472c-0.0512-16.384-13.3632-29.696-29.7472-29.696z" fill="#E16B02" p-id="26650"></path></svg>