<?xml version="1.0" standalone="no"?><!DOCTYPE svg PUBLIC "-//W3C//DTD SVG 1.1//EN" "http://www.w3.org/Graphics/SVG/1.1/DTD/svg11.dtd"><svg t="1684726681296" class="icon" viewBox="0 0 1024 1024" version="1.1" xmlns="http://www.w3.org/2000/svg" p-id="26430" xmlns:xlink="http://www.w3.org/1999/xlink" width="128" height="128"><path d="M704.4096 921.8048h-384c-27.5968 0-53.2992-14.848-67.1232-38.7584l-192-332.5952c-13.824-23.9104-13.824-53.6064 0-77.5168l192-332.5952c13.824-23.9104 39.5264-38.7584 67.1232-38.7584h384c27.5968 0 53.2992 14.848 67.1232 38.7584l192 332.5952c13.824 23.9104 13.824 53.6064 0 77.5168l-192 332.5952c-13.824 23.9104-39.5264 38.7584-67.1232 38.7584z m-384-768.9728c-9.3696 0-18.0736 5.0176-22.784 13.1584l-192 332.544a26.5216 26.5216 0 0 0 0 26.3168l192 332.5952a26.4704 26.4704 0 0 0 22.784 13.1584h384c9.3696 0 18.0736-5.0176 22.784-13.1584l192-332.544a26.5216 26.5216 0 0 0 0-26.3168l-192-332.5952a26.4704 26.4704 0 0 0-22.784-13.1584h-384z" fill="#ffffff" p-id="26431" data-spm-anchor-id="a313x.7781069.0.i2" class="selected"></path><path d="M630.4768 617.728s-15.5648-21.7088-83.1488-112.2304c11.0592-3.2768 67.1744-20.8896 67.1744-68.3008 0-80.5888-81.7152-78.9504-81.7152-78.9504h-122.88c-6.0928 0-11.0592 4.9664-11.0592 11.0592v0.9216c0 6.0928 4.9664 11.0592 11.0592 11.0592 17.8176 0 17.8176 16.2816 17.8176 16.2816v197.888c0 24.576-14.7456 24.576-14.7456 24.576h-15.0016c-3.2768 0-5.888 2.6624-5.888 5.888 0 3.2256 2.56 5.8368 5.7856 5.888l113.9712 2.6112c3.328 0.0512 6.0416-2.6112 6.0416-5.888v-2.4064c0-3.2768-2.6624-5.888-5.888-5.888h-11.264c-21.6576 0-19.5072-23.7568-19.5072-23.7568v-72.192h17.8176l72.704 101.8368a19.97312 19.97312 0 0 0 16.2816 8.3968h52.992c4.6592 0 8.3968-3.7376 8.3968-8.3968 0-4.6592-3.7376-8.3968-8.3968-8.3968h-10.5472zM481.1264 490.9056v-107.52c12.288 1.2288 76.8-0.6144 76.8 53.76 0.0512 54.3744-76.8 53.76-76.8 53.76z" fill="#E16B02" p-id="26432"></path><path d="M802.1504 440.4224h-27.2896c-27.648-119.0912-134.5536-208.1792-261.9392-208.1792-86.0672 0-167.6288 41.6768-218.112 111.5648a25.61536 25.61536 0 0 0 5.7344 35.7376 25.56928 25.56928 0 0 0 35.7376-5.7344c40.9088-56.576 106.9056-90.368 176.5888-90.368 98.9696 0 182.6816 66.4064 209.0496 156.9792h-14.3872c-12.9024 0-21.0432 13.824-14.7968 25.088l47.3088 85.5552c6.4512 11.6224 23.1936 11.6224 29.5936 0l47.3088-85.5552c6.2464-11.264-1.8944-25.088-14.7968-25.088zM725.1456 623.0016a25.56928 25.56928 0 0 0-35.7376 5.7344c-40.9088 56.4736-106.8544 90.1632-176.4864 90.1632-99.7376 0-183.9616-67.4304-209.664-159.1296h13.6192c12.9024 0 21.0432-13.824 14.7968-25.088l-47.3088-85.5552c-6.4512-11.6224-23.1936-11.6224-29.5936 0l-47.3088 85.5552c-6.2464 11.264 1.9456 25.088 14.7968 25.088h28.2112c26.8288 120.1664 134.2464 210.3296 262.4 210.3296 85.9648 0 167.4752-41.6256 217.9584-111.36a25.5232 25.5232 0 0 0-5.6832-35.7376z" fill="#E16B02" p-id="26433"></path></svg>