<?xml version="1.0" standalone="no"?><!DOCTYPE svg PUBLIC "-//W3C//DTD SVG 1.1//EN" "http://www.w3.org/Graphics/SVG/1.1/DTD/svg11.dtd"><svg t="1684724953566" class="icon" viewBox="0 0 1024 1024" version="1.1" xmlns="http://www.w3.org/2000/svg" p-id="26222" xmlns:xlink="http://www.w3.org/1999/xlink" width="128" height="128"><path d="M53.248 828.2624c35.9936-25.1904 100.7104-79.8208 175.0528-185.4976 1.8944-2.6624 5.0688-4.1984 8.3456-3.84 127.1808 13.312 228.864 93.696 261.5296 137.3184 3.4816 4.6592 10.4448 4.7616 14.08 0.256 35.6352-44.3392 146.8416-130.4064 294.0416-137.8304 3.5328-0.1536 6.912 1.792 8.4992 4.9152 26.9312 51.968 46.08 96.9216 152.8832 201.984 5.888 5.7856 1.5872 15.8208-6.656 15.4624-119.1424-4.7104-339.456-16.7936-421.6832 78.2848-1.7408 1.9968-4.1984 3.1744-6.8096 3.1744H481.792c-1.6896 0-3.2768-0.4608-4.7104-1.3312-19.8144-12.288-187.648-105.1136-418.4064-96.512-8.9088 0.3584-12.8-11.1616-5.4272-16.384z" fill="#E16B02" p-id="26223"></path><path d="M508.672 677.3248c-4.4032 0-8.8576-1.1264-12.8-3.4304L259.84 537.6a25.5232 25.5232 0 0 1-12.8-22.1696V242.8928c0-9.1648 4.864-17.6128 12.8-22.1696l236.032-136.2944c7.936-4.5568 17.664-4.5568 25.6 0l236.032 136.2944c7.936 4.5568 12.8 13.0048 12.8 22.1696v272.5376c0 9.1648-4.864 17.6128-12.8 22.1696l-236.032 136.2944c-3.9424 2.304-8.3456 3.4304-12.8 3.4304z m-210.432-176.64l210.432 121.4976 210.432-121.4976V257.6896L508.672 136.192l-210.432 121.4976v242.9952z" fill="#ffffff" p-id="26224" data-spm-anchor-id="a313x.7781069.0.i0" class="selected"></path><path d="M620.8 487.3728s-13.7216-19.1488-73.2672-98.9184c9.728-2.8672 59.1872-18.432 59.1872-60.2112 0-71.0144-72.0384-69.5808-72.0384-69.5808H426.3936a9.728 9.728 0 0 0-9.728 9.728v0.8192c0 5.376 4.352 9.728 9.728 9.728 15.7184 0 15.7184 14.336 15.7184 14.336v174.3872c0 21.6576-13.0048 21.6576-13.0048 21.6576h-13.2096c-2.8672 0-5.2224 2.3552-5.2224 5.2224 0 2.816 2.2528 5.12 5.0688 5.2224l100.4544 2.304c2.9184 0.0512 5.3248-2.304 5.3248-5.2224v-2.0992c0-2.8672-2.3552-5.2224-5.2224-5.2224H506.368c-19.0976 0-17.2032-20.9408-17.2032-20.9408V405.0432h15.7184l64.512 90.4192c3.0208 4.1984 7.8848 6.7072 13.056 6.7072h47.5136a7.42912 7.42912 0 0 0 0-14.848h-9.1648z m-131.584-111.7184V280.8832c10.8544 1.0752 67.6864-0.5632 67.6864 47.4112 0 47.872-67.6864 47.36-67.6864 47.36z" fill="#E16B02" p-id="26225"></path></svg>