<?xml version="1.0" standalone="no"?><!DOCTYPE svg PUBLIC "-//W3C//DTD SVG 1.1//EN" "http://www.w3.org/Graphics/SVG/1.1/DTD/svg11.dtd"><svg t="1684726913642" class="icon" viewBox="0 0 1024 1024" version="1.1" xmlns="http://www.w3.org/2000/svg" p-id="26859" data-spm-anchor-id="a313x.7781069.0.i7" xmlns:xlink="http://www.w3.org/1999/xlink" width="128" height="128"><path d="M691.1488 381.5936l-30.5664-30.5664c-1.4848-1.4848-3.4816-2.3552-5.5808-2.4064l-76.2368-1.9456c-2.2528-0.0512-4.4032 0.8192-5.9904 2.4064l-39.1168 39.1168a8.192 8.192 0 0 1-11.6224 0l-37.0688-37.0688c-1.536-1.536-3.6352-2.4064-5.7856-2.4064H402.1248c-2.2016 0-4.2496 0.8704-5.7856 2.4064l-28.672 28.672-31.488 31.488c-1.536 1.536-2.4064 3.6352-2.4064 5.7856V488.448c0 2.2016 0.8704 4.2496 2.4064 5.7856l45.6704 45.6704 79.4624 79.4624c1.7408 1.7408 4.1472 2.6112 6.5536 2.3552l103.2192-9.4208c3.4304-0.3072 6.7072 1.5872 8.192 4.7104l0.5632 1.2288a8.2432 8.2432 0 0 0 13.2608 2.3552l126.3104-126.3104c1.536-1.536 2.4064-3.6352 2.4064-5.7856V415.6928c0-2.2016-0.8704-4.2496-2.4064-5.7856l-28.2624-28.3136z" fill="#E16B02" p-id="26860"></path><path d="M205.9264 615.7312c-14.1312 0-25.6-11.4688-25.6-25.6V262.6048c0-15.4112 6.0416-30.208 17.1008-41.6768l94.7712-98.4576c12.5952-13.1072 30.6688-20.5824 49.5104-20.5824h372.2752c18.8928 0 36.9664 7.5264 49.5616 20.6336l94.7712 98.4576c11.008 11.4176 17.0496 26.2144 17.0496 41.6768v276.3776c0 14.1312-11.4688 25.6-25.6 25.6s-25.6-11.4688-25.6-25.6V262.6048c0-2.7136-1.4848-4.864-2.7648-6.144l-94.7712-98.4576c-2.9696-3.072-7.68-4.9152-12.6464-4.9152H341.6576c-4.9664 0-9.6768 1.8432-12.6464 4.9152l-94.72 98.4064c-1.792 1.8432-2.7648 4.0448-2.7648 6.144v327.5776c0 14.1312-11.4688 25.6-25.6 25.6z" fill="#E16B02" p-id="26861"></path><path d="M266.2912 941.4656a25.56928 25.56928 0 0 1-21.76-12.0832l-110.848-178.8416a25.55904 25.55904 0 0 1 7.1168-34.4576l143.7696-100.4544c3.5328-2.4576 7.6288-3.9936 11.8784-4.4544l268.6976-29.184a25.4976 25.4976 0 0 1 19.2512 5.888c5.3248 4.5056 8.6016 11.008 9.0624 17.9712l1.4848 24.0128 235.8784-31.232c9.1136-1.1776 18.176 2.56 23.7568 9.8816l41.8304 55.0912c4.352 5.7344 6.0928 13.056 4.8128 20.1216a25.63584 25.63584 0 0 1-11.6736 17.1008l-260.5568 161.9456c-3.7376 2.304-8.0384 3.6352-12.3904 3.84l-261.9392 11.264-72.3456 57.9584c-4.608 3.6352-10.2912 5.632-16.0256 5.632zM189.952 744.1408l82.8416 133.6832 56.32-45.1584c4.2496-3.3792 9.472-5.376 14.8992-5.5808l263.5776-11.3664 230.9632-143.5648-15.8208-20.8384-224.6656 29.7472 0.1024 1.792a25.6256 25.6256 0 0 1-15.0016 24.9344l-182.528 82.3296c-12.8512 5.7856-28.0576 0.1024-33.8432-12.8a25.52832 25.52832 0 0 1 12.8-33.8432l166.4-75.0592-2.048-32.6144-235.52 25.5488-118.4768 82.7904zM736.5632 292.1984H319.0784c-14.1312 0-25.6-11.4688-25.6-25.6s11.4688-25.6 25.6-25.6h417.4848c14.1312 0 25.6 11.4688 25.6 25.6s-11.4688 25.6-25.6 25.6z" fill="#ffffff" p-id="26862" data-spm-anchor-id="a313x.7781069.0.i8" class="selected"></path></svg>