<?xml version="1.0" standalone="no"?><!DOCTYPE svg PUBLIC "-//W3C//DTD SVG 1.1//EN" "http://www.w3.org/Graphics/SVG/1.1/DTD/svg11.dtd"><svg t="1679684143796" class="icon" viewBox="0 0 1242 1024" version="1.1" xmlns="http://www.w3.org/2000/svg" p-id="11312" xmlns:xlink="http://www.w3.org/1999/xlink" width="38.8125" height="32"><path d="M1173.937666 966.50009H375.822153a58.181663 58.181663 0 0 1 0-115.678836h798.800003a58.181663 58.181663 0 1 1 0 115.678836zM0.037062 919.954759A101.304542 101.304542 0 1 0 101.341604 821.388178 101.304542 101.304542 0 0 0 0.037062 919.954759z m1173.900604-362.779778H375.822153a58.181663 58.181663 0 0 1 0-115.678835h798.800003a58.181663 58.181663 0 1 1 0 115.678835zM0.037062 510.629651A101.304542 101.304542 0 1 0 101.341604 410.694089 101.304542 101.304542 0 0 0 0.037062 510.629651z m1173.900604-362.779779H375.822153a58.181663 58.181663 0 1 1 0-115.678835h798.800003a58.181663 58.181663 0 1 1 0 115.678835zM0.037062 101.304542A101.304542 101.304542 0 1 0 101.341604 0 101.304542 101.304542 0 0 0 0.037062 101.304542z"  p-id="11313"></path></svg>