<?xml version="1.0" standalone="no"?><!DOCTYPE svg PUBLIC "-//W3C//DTD SVG 1.1//EN" "http://www.w3.org/Graphics/SVG/1.1/DTD/svg11.dtd"><svg t="1679743096555" class="icon" viewBox="0 0 1024 1024" version="1.1" xmlns="http://www.w3.org/2000/svg" p-id="8838" xmlns:xlink="http://www.w3.org/1999/xlink" width="32" height="32"><path d="M946.176 558.933333H563.2a38.4 38.4 0 1 1 0-76.8h290.133333l-58.026666-58.026666a38.4 38.4 0 0 1 54.272-54.272L972.8 493.397333a38.4 38.4 0 0 1-27.136 65.536z"  p-id="8839" data-spm-anchor-id="a313x.7781069.0.i3" class=""></path><path d="M770.901333 992.597333H197.290667a89.770667 89.770667 0 0 1-89.6-89.6V121.002667a89.770667 89.770667 0 0 1 89.6-89.6h573.610666a89.770667 89.770667 0 0 1 89.6 89.6v93.013333a38.4 38.4 0 1 1-76.8 0V121.002667a12.8 12.8 0 0 0-12.8-12.8H197.290667a12.8 12.8 0 0 0-12.8 12.8v781.994666a12.8 12.8 0 0 0 12.8 12.8h573.610666a12.8 12.8 0 0 0 12.8-12.8V696.149333a38.4 38.4 0 0 1 76.8 0v206.848a89.770667 89.770667 0 0 1-89.6 89.6z"  p-id="8840" data-spm-anchor-id="a313x.7781069.0.i5" class=""></path></svg>