<?xml version="1.0" standalone="no"?><!DOCTYPE svg PUBLIC "-//W3C//DTD SVG 1.1//EN" "http://www.w3.org/Graphics/SVG/1.1/DTD/svg11.dtd"><svg t="1678812566777" class="icon" viewBox="0 0 1025 1024" version="1.1" xmlns="http://www.w3.org/2000/svg" p-id="14102" xmlns:xlink="http://www.w3.org/1999/xlink" width="32.03125" height="32"><path d="M985.362423 219.485527l-95.186496 95.186496-183.596787-177.971259 97.99926-97.99926a127.831607 127.831607 0 1 1 180.784023 180.784023z m-150.930368 150.866441l-393.467348 392.508451L191.779374 832.220626l68.337383-250.14423L651.410606 191.805371l183.021449 178.546597z m150.930368-150.866441l-95.186496 95.186496-183.596787-177.971259 97.99926-97.99926a127.831607 127.831607 0 1 1 180.784023 180.784023z m-150.930368 150.866441l-393.467348 392.508451L191.779374 832.220626l68.273457-250.14423L651.34668 191.805371l183.085375 178.546597zM894.970411 490.597635l127.852916-127.788989V832.220626a191.779374 191.779374 0 0 1-191.779374 191.779374H191.779374a191.779374 191.779374 0 0 1-191.779374-191.779374V192.956047a191.779374 191.779374 0 0 1 191.779374-191.779374h469.348054l-128.108622 127.852916H191.779374C156.491969 129.029589 127.852916 157.668642 127.852916 192.956047v639.264579a63.926458 63.926458 0 0 0 63.926458 63.926458h639.264579c35.351331 0 63.926458-28.575127 63.926458-63.926458V490.597635z" p-id="14103"></path></svg>