<?xml version="1.0" standalone="no"?><!DOCTYPE svg PUBLIC "-//W3C//DTD SVG 1.1//EN" "http://www.w3.org/Graphics/SVG/1.1/DTD/svg11.dtd"><svg t="1678812172762" class="icon" viewBox="0 0 1024 1024" version="1.1" xmlns="http://www.w3.org/2000/svg" p-id="3184" xmlns:xlink="http://www.w3.org/1999/xlink" width="32" height="32"><path d="M832 832H448l-128 192-128-192c-106.048 0-192-86.016-192-192V192a192 192 0 0 1 192-192h640c105.984 0 192 85.952 192 192v448c0 105.984-86.016 192-192 192z m64-640a64 64 0 0 0-64-64H192C156.672 128 128 156.672 128 192v448a64 64 0 0 0 64 64h42.688L320 832l85.376-128H832c35.392 0 64-28.608 64-64V192z m-640 192h512v64H256v-64z m0-128h512v64H256v-64z m256 320H256v-64h256v64z" p-id="3185"></path></svg>