<?xml version="1.0" standalone="no"?><!DOCTYPE svg PUBLIC "-//W3C//DTD SVG 1.1//EN" "http://www.w3.org/Graphics/SVG/1.1/DTD/svg11.dtd"><svg t="1681320198816" class="icon" viewBox="0 0 1024 1024" version="1.1" xmlns="http://www.w3.org/2000/svg" p-id="19638" xmlns:xlink="http://www.w3.org/1999/xlink" width="128" height="128"><path d="M507.552 375.616v438.208L346.56 916.672V469.504z" fill="#00537D" p-id="19639"></path><path d="M346.56 666.272v-196.736L167.68 366.688v447.168l357.728 210.176v-254.88z" fill="#E64E17" p-id="19640"></path><path d="M507.52 375.616L333.12 272.768 167.68 366.656l178.88 102.848z" fill="#FF9C1A" p-id="19641"></path><path d="M194.528 478.464v35.776l31.296 17.888v-35.776z m49.184 31.296v35.776l31.296 17.888v-35.776zM194.528 420.32v35.776l31.296 17.888v-35.776z m49.184 26.816v35.776l31.296 17.888v-35.68z m49.184 89.44v35.776l31.296 17.888v-35.776z m-98.368 4.48v35.776l31.296 17.888v-35.776z m49.184 31.296v35.776l31.296 17.888v-35.776z m49.184 26.816v35.776l31.296 17.888v-35.776z m0-125.216v35.776l31.296 17.888V491.84z" fill="#ECFFD7" p-id="19642"></path><path d="M690.88 675.2l-183.328-102.848-160.992 93.92 178.848 102.848z" fill="#FF9C1A" p-id="19643"></path><path d="M364.448 769.12v35.776l31.296 17.888v-35.776z m49.184 31.296v35.776l31.296 17.888v-35.776z m-49.184-89.44v35.776l31.296 17.888v-35.776z m49.184 26.848v35.776l31.296 17.888v-35.712z m49.184 89.44v35.776l31.296 17.888v-35.776z m0-62.592v35.776l31.296 17.888v-35.776z" fill="#ECFFD7" p-id="19644"></path><path d="M279.488 371.136l67.2 35.776V272.768l-67.2-35.776z" fill="#E64E17" p-id="19645"></path><path d="M346.56 406.912l62.592-35.776V237.184L346.56 272.768z" fill="#00537D" p-id="19646"></path><path d="M279.488 236.992l67.2-35.776L409.28 237.152 346.688 272.736z" fill="#FF9C1A" p-id="19647"></path><path d="M507.552 572.48V178.88l183.328 102.848v393.6z" fill="#E64E17" p-id="19648"></path><path d="M690.848 281.696v393.6l-165.44 93.824V1024l330.912-192.288V183.328z" fill="#00537D" p-id="19649"></path><path d="M507.552 178.848l169.92-98.368 178.88 102.848-165.44 98.368z" fill="#FF9C1A" p-id="19650"></path><path d="M534.368 295.136v35.776l31.296 17.888V313.024z m49.184 31.296v35.776l31.296 17.888V344.32z m-49.184-89.44v35.776l31.296 17.888V254.88z m49.184 26.816v35.776l31.296 17.888V281.792z m49.184 89.44v35.776l31.296 17.888v-35.776z m-98.368 4.48v35.776l31.296 17.888v-35.776z m49.184 31.296v35.776l31.296 17.888v-35.776z m49.184 26.816v35.776l31.296 17.888v-35.776z m-98.368 0v35.776l31.296 17.888v-35.776z m49.184 31.296v35.776l31.296 17.888v-35.776z m49.184 26.816v35.776l31.296 17.888V491.84z m0-183.328V326.4l31.296 17.888V308.512z" fill="#ECFFD7" p-id="19651"></path><path d="M623.808 169.92l67.2 35.776V71.552l-67.2-35.776z" fill="#E64E17" p-id="19652"></path><path d="M690.88 205.664l62.592-35.776V35.936L690.88 71.52z" fill="#00537D" p-id="19653"></path><path d="M623.808 35.776L691.008 0l62.592 35.936-62.592 35.616z" fill="#FF9C1A" p-id="19654"></path></svg>