<?xml version="1.0" standalone="no"?><!DOCTYPE svg PUBLIC "-//W3C//DTD SVG 1.1//EN" "http://www.w3.org/Graphics/SVG/1.1/DTD/svg11.dtd"><svg class="icon" width="128px" height="128.00px" viewBox="0 0 1024 1024" version="1.1" xmlns="http://www.w3.org/2000/svg"><path d="M275.8656 538.4704S210.4832 449.9968 264.0896 353.28s209.152-118.528 279.7568-15.4624c16.9984 41.6256 28.7744 79.5136 28.7744 79.5136s-126.8224 30.1568-179.0976 134.0416c-27.392-8.7552-62.7712-31.6416-117.6576-12.9024z" fill="#CAE2FF" /><path d="M841.7792 612.7104c-12.9536-120.3712-112.7424-215.1424-235.3152-220.2112C586.7008 299.008 502.784 230.0416 406.016 230.0416c-112.9984 0-204.9024 91.904-204.9024 204.9024 0 38.3488 10.4448 75.1104 30.3616 107.3152a121.088 121.088 0 0 0-30.1568 74.7008c-65.3312 22.016-111.7184 84.2752-111.7184 155.136 0 90.1632 73.3184 163.4816 163.4816 163.4816h552.1408c90.1632 0 163.4816-73.3184 163.4816-163.4816 0-77.3632-53.8624-142.6944-126.9248-159.3856zM406.016 291.5328c65.1776 0 122.0096 44.6464 138.5984 106.2912-68.1984 14.6432-127.744 57.7536-162.7136 118.3744a121.55904 121.55904 0 0 0-59.136-15.3088c-14.1312 0-27.6992 2.4064-40.2944 6.8608a142.21312 142.21312 0 0 1-19.9168-72.8064c0-79.0528 64.3584-143.4112 143.4624-143.4112z m399.2064 582.6048H253.0816c-56.2688 0-102.0416-45.7728-102.0416-102.0416 0-50.3296 37.4784-93.696 87.1424-100.9664 8.3456-1.2288 15.872-5.8368 20.6848-12.7488 4.864-6.912 6.656-15.5136 4.9664-23.808-0.8192-3.9936-1.2288-8.0896-1.2288-12.1344 0-33.1776 26.9824-60.1088 60.1088-60.1088 18.0736 0 34.9696 7.9872 46.4896 21.9648a30.6432 30.6432 0 0 0 28.8768 10.752 30.74048 30.74048 0 0 0 23.7056-19.712c26.7264-72.7552 96.768-121.6512 174.336-121.6512 102.2464 0 185.4464 83.0976 185.6 185.2928v0.512c0 16.3328 12.7488 29.7984 29.0816 30.6688 54.0672 2.9184 96.4096 47.6672 96.4096 101.888 0.0512 56.32-45.7216 102.0928-101.9904 102.0928z" fill="#5866D2" /><path d="M99.3792 594.9952a30.72 30.72 0 0 1-28.2624-18.688c-6.656-15.616 0.5632-33.6384 16.1792-40.2944l60.4672-25.8048c15.616-6.656 33.6384 0.5632 40.2944 16.1792 6.656 15.616-0.5632 33.6384-16.1792 40.2944l-60.4672 25.8048c-3.8912 1.7408-7.9872 2.5088-12.032 2.5088zM162.2528 365.3632c-4.352 0-8.704-0.9216-12.9024-2.8672l-62.8736-29.184c-15.4112-7.1168-22.0672-25.3952-14.9504-40.8064 7.1168-15.4112 25.3952-22.0672 40.8064-14.9504l62.8736 29.184c15.4112 7.1168 22.0672 25.3952 14.9504 40.8064a30.80192 30.80192 0 0 1-27.904 17.8176zM309.0432 222.464c-11.9808 0-23.3472-7.0144-28.3136-18.7392l-27.4432-64.7168a30.7712 30.7712 0 0 1 16.2816-40.2944 30.7712 30.7712 0 0 1 40.2944 16.2816l27.4432 64.7168a30.7712 30.7712 0 0 1-28.2624 42.752zM508.16 222.464c-4.3008 0-8.6528-0.9216-12.8-2.816-15.4112-7.1168-22.1696-25.344-15.0528-40.7552l29.7984-64.7168a30.75584 30.75584 0 0 1 40.7552-15.0528c15.4112 7.1168 22.1696 25.344 15.0528 40.7552l-29.7984 64.7168a30.8736 30.8736 0 0 1-27.9552 17.8688zM653.6704 368.5376c-12.1344 0-23.6032-7.2192-28.4672-19.1488a30.70464 30.70464 0 0 1 16.8448-40.0384l63.744-25.9584c15.7184-6.4 33.6384 1.1264 40.0384 16.8448a30.70464 30.70464 0 0 1-16.8448 40.0384l-63.744 25.9584c-3.7888 1.5872-7.7312 2.304-11.5712 2.304z" fill="#5866D2" /></svg>