<?xml version="1.0" standalone="no"?><!DOCTYPE svg PUBLIC "-//W3C//DTD SVG 1.1//EN" "http://www.w3.org/Graphics/SVG/1.1/DTD/svg11.dtd"><svg class="icon" width="128px" height="128.00px" viewBox="0 0 1024 1024" version="1.1" xmlns="http://www.w3.org/2000/svg"><path d="M442.12224 534.016m-409.6 0a409.6 409.6 0 1 0 819.2 0 409.6 409.6 0 1 0-819.2 0Z" fill="#4278C3" /><path d="M442.12224 124.416a407.77728 407.77728 0 0 0-189.91104 46.61248 391.4752 391.4752 0 0 0-9.19552 84.43904c0 215.77728 174.94016 390.69696 390.71744 390.69696A388.89472 388.89472 0 0 0 848.95744 581.632a414.4128 414.4128 0 0 0 2.7648-47.55456c0-226.28352-183.3984-409.66144-409.6-409.66144z" fill="#5EA5EC" /><path d="M312.91392 758.784a365.60896 365.60896 0 0 0 273.57184-608.256 408.61696 408.61696 0 0 0-144.36352-26.19392c-226.22208 0-409.6 183.37792-409.6 409.6a409.43616 409.43616 0 0 0 15.17568 110.7968 364.544 364.544 0 0 0 265.216 114.05312z" fill="#70C6DA" /><path d="M653.59872 779.30496a14.336 14.336 0 0 1 0-16.73216L731.136 654.31552a4.83328 4.83328 0 0 0-6.73792-6.73792l-108.25728 77.6192a14.336 14.336 0 0 1-16.73216 0l-108.2368-77.6192a4.83328 4.83328 0 0 0-6.7584 6.73792l77.63968 108.25728a14.336 14.336 0 0 1 0 16.73216l-77.63968 108.2368a4.85376 4.85376 0 0 0 6.7584 6.7584l108.2368-77.63968a14.336 14.336 0 0 1 16.73216 0l67.29728 48.25088c6.88128-5.03808 13.63968-10.24 20.19328-15.72864z" fill="#ECBE6B" /><path d="M216.8832 486.95296A286.94528 286.94528 0 0 1 196.23936 93.47072c0.3072-1.1264 0.63488-2.23232 0.94208-3.33824A316.37504 316.37504 0 0 0 143.36 135.35232C26.624 257.72032 27.9552 448.3072 146.2272 561.152s308.69504 104.96 425.3696-17.408a317.1328 317.1328 0 0 0 42.5984-55.93088l-3.29728 1.10592a286.94528 286.94528 0 0 1-394.01472-1.96608z" fill="#F4DD45" /><path d="M286.12608 414.33088A326.08256 326.08256 0 0 1 196.23936 93.47072a286.94528 286.94528 0 0 0 414.65856 395.3664 326.0416 326.0416 0 0 1-324.77184-74.50624zM589.37344 744.16128l11.8784-72.0896a6.69696 6.69696 0 0 1 13.23008 0l11.8784 72.0896a10.05568 10.05568 0 0 0 8.192 8.192l72.0896 11.8784a6.69696 6.69696 0 0 1 0 13.23008l-72.0896 11.8784a10.05568 10.05568 0 0 0-8.192 8.2944L614.4 869.7856a6.69696 6.69696 0 0 1-13.23008 0l-11.8784-72.06912a10.05568 10.05568 0 0 0-8.192-8.2944l-72.06912-11.8784a6.69696 6.69696 0 0 1 0-13.23008l72.06912-11.8784a10.05568 10.05568 0 0 0 8.27392-8.27392z" fill="#F9EF63" /><path d="M672.48128 195.31776Q659.456 186.368 645.632 178.46272l5.30432 32.29696z" fill="#4278C3" /><path d="M617.82016 234.20928l3.85024-23.4496-101.96992-73.13408a4.83328 4.83328 0 0 0-6.7584 6.73792l73.15456 101.9904 23.42912-3.87072a10.05568 10.05568 0 0 0 8.2944-8.27392zM609.52576 279.47008l-23.42912-3.85024-73.15456 101.96992a4.85376 4.85376 0 0 0 6.7584 6.7584L621.6704 311.296l-3.85024-23.42912a10.05568 10.05568 0 0 0-8.2944-8.3968zM654.80704 287.76448L650.93632 311.296l101.9904 73.15456a4.83328 4.83328 0 0 0 6.73792-6.7584l-73.13408-101.96992-23.4496 3.85024a10.05568 10.05568 0 0 0-8.27392 8.192zM654.80704 234.20928a10.05568 10.05568 0 0 0 8.192 8.192l23.4496 3.87072 18.75968-26.17344a404.60288 404.60288 0 0 0-32.768-24.86272l-21.54496 15.44192z" fill="#ECBE6B" /><path d="M681.984 269.35296l4.48512 6.26688 48.76288-8.02816a6.69696 6.69696 0 0 0 0-13.23008l-48.64-8.00768-4.608 6.26688a14.336 14.336 0 0 0 0 16.73216zM590.58176 252.6208l-4.48512-6.26688-48.64 8.00768a6.69696 6.69696 0 0 0 0 13.23008l48.64 8.02816 4.48512-6.26688a14.336 14.336 0 0 0 0-16.73216zM627.93728 215.2448a14.336 14.336 0 0 0 16.73216 0l6.26688-4.48512-5.30432-32.29696q-8.43776-4.83328-17.1008-9.27744l-6.8608 41.5744zM627.93728 306.70848l-6.26688 4.58752 8.02816 48.64a6.69696 6.69696 0 0 0 13.23008 0l8.00768-48.64-6.26688-4.48512a14.336 14.336 0 0 0-16.73216-0.1024z" fill="#F9EF63" /><path d="M654.80704 234.20928l-3.87072-23.4496-6.26688 4.48512a14.336 14.336 0 0 1-16.73216 0l-6.26688-4.48512-3.85024 23.4496a10.05568 10.05568 0 0 1-8.2944 8.192l-23.42912 3.87072 4.48512 6.26688a14.336 14.336 0 0 1 0 16.73216l-4.48512 6.26688 23.42912 3.85024a10.05568 10.05568 0 0 1 8.2944 8.192l3.85024 23.71584 6.26688-4.48512a14.336 14.336 0 0 1 16.73216 0l6.26688 4.48512 3.87072-23.42912a10.05568 10.05568 0 0 1 8.192-8.192l23.4496-3.85024-4.46464-6.47168a14.336 14.336 0 0 1 0-16.73216l4.48512-6.26688-23.4496-3.87072a10.05568 10.05568 0 0 1-8.21248-8.27392z" fill="#F9EF63" /><path d="M147.10784 809.79968L150.95808 786.432 89.2928 742.13376a409.78432 409.78432 0 0 0 55.05024 73.09312 10.07616 10.07616 0 0 0 2.7648-5.4272zM192.36864 818.09408l23.4496 3.85024 73.13408-101.96992a4.83328 4.83328 0 0 0-6.73792-6.7584L180.224 786.432l3.87072 23.42912a10.05568 10.05568 0 0 0 8.27392 8.23296zM192.36864 855.08096a9.58464 9.58464 0 0 0-3.19488 1.1264 410.54208 410.54208 0 0 0 57.344 37.74464l-30.72-42.74176z" fill="#ECBE6B" /><path d="M211.33312 844.94336l4.48512 6.26688 48.64-8.00768a6.69696 6.69696 0 0 0 0-13.23008l-48.64-8.02816-4.48512 6.26688a14.336 14.336 0 0 0 0 16.73216zM173.95712 790.85568L180.224 786.432l-8.00768-48.64a6.69696 6.69696 0 0 0-13.23008 0L150.95808 786.432l6.26688 4.48512a14.336 14.336 0 0 0 16.73216-0.06144z" fill="#F9EF63" /><path d="M144.34304 815.22688a410.58304 410.58304 0 0 0 44.83072 40.96 9.58464 9.58464 0 0 1 3.19488-1.1264l23.4496-3.87072-4.48512-6.26688a14.336 14.336 0 0 1 0-16.73216l4.48512-6.26688-23.4496-3.85024a10.05568 10.05568 0 0 1-8.192-8.192L180.224 786.432l-6.26688 4.48512a14.336 14.336 0 0 1-16.73216 0L150.95808 786.432l-3.85024 23.42912a10.07616 10.07616 0 0 1-2.7648 5.36576z" fill="#F9EF63" /><path d="M318.40256 249.87648m-28.48768 0a28.48768 28.48768 0 1 0 56.97536 0 28.48768 28.48768 0 1 0-56.97536 0Z" fill="#FFFFFF" /><path d="M740.78208 506.04032m-28.48768 0a28.48768 28.48768 0 1 0 56.97536 0 28.48768 28.48768 0 1 0-56.97536 0Z" fill="#FFFFFF" /><path d="M363.9296 821.30944m-28.48768 0a28.48768 28.48768 0 1 0 56.97536 0 28.48768 28.48768 0 1 0-56.97536 0Z" fill="#FFFFFF" /><path d="M422.25664 385.31072m-19.84512 0a19.84512 19.84512 0 1 0 39.69024 0 19.84512 19.84512 0 1 0-39.69024 0Z" fill="#FFFFFF" /><path d="M497.7664 215.7568m-14.2336 0a14.2336 14.2336 0 1 0 28.4672 0 14.2336 14.2336 0 1 0-28.4672 0Z" fill="#FFFFFF" /><path d="M158.88384 700.80512m-14.2336 0a14.2336 14.2336 0 1 0 28.4672 0 14.2336 14.2336 0 1 0-28.4672 0Z" fill="#FFFFFF" /></svg>