<?xml version="1.0" standalone="no"?><!DOCTYPE svg PUBLIC "-//W3C//DTD SVG 1.1//EN" "http://www.w3.org/Graphics/SVG/1.1/DTD/svg11.dtd"><svg class="icon" width="128px" height="128.00px" viewBox="0 0 1024 1024" version="1.1" xmlns="http://www.w3.org/2000/svg"><path fill="#2c2c2c" d="M447.955 22.605c3.183-15.147-22.992-13.096-14.66 0 8.112-0.876 9.109 2.52 14.66 0z m-7.33 104.436c7.776 2.217 15.645 2.616 10.998 12.829 9.339-2.148 18.415 3.992 25.651 9.158 13.327-3.219 21.29-0.619 31.147 3.66 4.103-15.439 19.368-19.715 31.141-27.485-3.116-8.831-0.958-16.279 7.336-18.316 2.5-17.887-10.926-25.037-3.657-42.145-18.459-4.13-24.064-21.13-38.487-29.313-1.459 4.037-3.673 7.313-9.158 7.33-4.967-1.143-4.565-7.657-10.997-7.33-2.467 8.624-12.132 10.992-21.983 7.33-5.639 12.682-15.315 21.328-27.479 27.479 9.538 8.629-0.815 21.705-5.501 27.485 3.693 12.078 12.542 14.719 10.989 29.318zM752.106 73.91c17.093 5.209 32.083-6.812 32.985-23.826-14.747-2.987-31.576 5.747-34.814 20.153 1.421 0.408 2.126 1.536 1.829 3.673z m164.898 71.455c0.408-6.705 2.522-7.032 0-12.828-10.154-0.011-15.396-9.792-25.65-12.826-9.868-2.924-22.436 1.671-29.308-7.33-3.305 7.032-11.091 8.855-20.155 5.499-2.468 15.243-21.224 14.2-20.155 32.978-3.194-0.138-5.694 0.41-7.324 1.831-1.377 5.639 5.022 3.524 3.656 9.158-1.607 5.11-9.086 4.353-9.152 10.997 10.882 3.761 11.366 17.944 14.648 29.311 11.047 4.235 14.064 16.477 25.651 20.161-14.66 5.493-26.973 13.33-27.479 32.983 39.727 19.679 42.095-47.21 84.277-36.648 8.393-19.213 28.525-36.158 16.487-60.463 2.291-4.433 9.241-4.202 9.164-10.997-4.373-1.11-13.283 2.307-14.66-1.826zM237.25 345.075c-10.436-2.39-19.026-6.625-29.313-9.164 0.446 11.188 22.049 10.885 29.313 9.164zM944.495 495.32c5.044 6.553 20.1 3.717 20.155-5.499-4.174-9.524-20.409-4.934-20.155 5.499zM316.037 804.967c-7.847-1.135-7.473 5.964-14.665 5.49-8.607-2.984-9.323-13.877-12.814-21.983-7.473-1.36-6.316 5.903-14.665 3.667-5.458-2.488-7.605-8.276-10.992-12.825-16.796 3.349-20.53-6.344-29.319-10.997-3.21 2.896-3.794 8.414-9.158 9.163-17.518-7.308-19.577 15.717-38.477 7.324-6.046 20.904-22.198 32.723-45.806 31.152-0.65 11.036 12.379 8.376 14.659 16.493 3.188 16.009-5.826 19.825-7.335 31.147 6.113 10.254 10.623 25.32 12.831 43.973 9.478-0.314 11.151 7.17 14.659 12.825 9.764-1.217 16.036 1.063 18.316 7.324 2.005 9.945-3.695 12.182-3.662 20.155 8.668-4.163 15.458-10.199 27.491-10.992 8.084 5.953 13.437 14.66 31.141 10.992 0.997-5.716 4.367-9.075 9.164-10.992 5.584 2.347 4.901 10.976 12.826 10.992 6.08-3.64-3.001-20.788 9.158-21.983 7.688-0.353 5.667 8.992 14.66 7.329 2.004-8.392 2.004-11.763 0-20.154 12.043-7.44 14.714 9.036 21.989 5.501-0.039-7.913-9.13-6.757-9.163-14.665 8.354-11.289-2.721-32.859 9.163-42.139 8.139-4.08 34.578 5.59 45.807-3.668-36.804 10.1-65.985-22.461-45.808-53.129z m415.925-3.662c9.142 13.294 23.624 4.13 43.967 7.324-5.177-11.846-29.815-10.133-43.967-7.324zM361.844 874.59c12.914 2.347 26.444 4.092 40.305 5.496-5.518-8.558-29.518-8.304-40.305-5.496zM85.172 925.893c-7.032-13.745-24.131-2.974-25.646 7.324-1.9 12.886 12.572 16.278 12.825 27.49 24.197 7.902 22.259-21.774 32.981-32.986-0.953-2.709-2.715-4.614-3.673-7.33-8.662-1.328-12.037 2.616-16.487 5.502z m633.959 27.479c0.43 10.419 18.525 11.383 23.812 11.003-3.183-8.415-14.307-8.899-23.812-11.003z m-62.294 58.626c-3.712-15.832-9.373-29.721-18.327-40.305 3.535 16.009 9.813 29.27 18.327 40.305z m183.214-729.217v-7.335c-10.21-3.304-8.591-1.996-18.315 3.665-6.873-5.16-11.785-1.223-18.327-5.499-3.084 7.908-8.305 13.682-21.983 10.997-6.388 15.174-23.911 26.317-23.823 45.806 0.056 10.251 10.728 20.409 3.668 29.313-30.332-31.879-102.131 1.757-139.247-9.158 4.702-14.229 11.707-26.16 16.487-40.31 6.807-1.815 14.968-9.748 9.163-18.322-24.604 8.371-23.977 41.985-49.474 49.474-9.912-11.104-21.014-14.235-32.986-25.654-1.332-26.898-14.163-40.099-23.812-56.801-3.987-6.903-2.479-16.609-12.82-16.491-1.035 2.641-2.863 4.475-5.496 5.493-1.442 10.601 5.1 13.225 3.657 23.826-18.856 10.279-50.691-2.819-71.458-12.828-2.225 11.391 4.152 14.169 3.662 23.823-19.131 9.722-31.18-4.364-49.469 3.662-10.088-6.396-13.916-19.068-27.485-21.989-12.214-10.38-13.949-31.238-29.313-38.474-0.446 12.52 5.655 13.913 10.997 21.98 6.08 9.197 11.939 25.123 18.316 32.989 8.332 10.256 19.021 13.726 18.327 23.814-0.947 13.844-17.104 14.571-29.319 21.992-11.438 50.735-69.337 35.109-109.934 21.986 23.696 12.333 54.678 17.385 75.125 32.978-13.569 10.854-26.317 22.545-34.809 38.474-10.777-0.834-13.503-9.714-27.49-7.324-1.608 10.149 9.885 7.211 12.826 12.823-28.427 6.547-40.068-18.269-71.452-12.823-0.44-2.616-3.023-3.095-3.667-5.504-1.206-6.699 3.959-7.027 3.667-12.817-8.095-6.085-14.428-14.78-12.82-25.651-12.98-5.967-24.01-13.866-25.662-31.152-8.971-1.641-4.945 9.711-14.654 7.327-4.94-15.237-14.01-5.014-27.485-10.997-2.147 2.745-2.28 7.5-5.49 9.169-19.792-4.51-19.896 10.642-31.152 14.657-12.446-4.648-18.349-14.707-32.981-9.158 0.507 9.868 17.259 3.508 20.15 10.986-6.696 17.118-11.526 36.117-20.15 51.302 7.594 4.81 12.033 15.593 7.33 27.485 11.361 10.46 22.87 22.652 27.485 34.814 6.696 1.209 7.026-3.968 12.82-3.665 5.749 4.034 11.372 8.178 12.831 16.496 17.842-9.604 37.711-8.673 56.792-12.831 3.051-2.445 0.617-10.38 3.667-12.828 5.656-0.449 10.359-1.853 14.66-3.665 4.681-2.33-1.702-8.971 1.839-9.158 25.111 3.4 64.596-0.281 84.272 16.487 5.732 19.715 9.907 39.256 0 58.632-3.183 2.269-12.165-1.398-20.155 0-4.681-1.426-3.106-9.108-9.158-9.158-32.034 5.832-54.1 21.637-64.133 49.469 1.911 9.703 3.585 19.638 3.673 31.147 8.734 18.128 28.289 25.452 40.305 40.31 3.723-7.417 17.529-6.233 23.817-1.828 20.607-10.545 40.828-21.477 47.64-45.806 27.452 0.027 28.344 26.614 45.806 36.643-4.989 27.375-13.371 51.368-20.155 76.953 13.497-10.838 18.536-33.262 21.983-58.638 7.61-2.158 12.836-6.707 20.155-9.152 4.625 4.532 12.396 5.92 12.831 14.654 0.154 6.878-6.713 6.724-7.335 12.825 21.301-2.346 55.559-4.345 53.142 29.319 10.507 3.177 6.906-7.754 14.654-7.336 17.396 12.683 21.229 64.794 10.998 82.449-10.976-13.651-9.505-35.271-31.153-32.975-21.455 2.279-25.508 33.189-10.992 51.296 18.746 6.229 35.459 18.168 45.806-3.662 19.379 17.072 7.159 58.517-10.997 69.624-7.5 1.663-14.825 3.503-16.482 10.997 1.426 0.408 2.125 1.531 1.823 3.662 6.581 3.806 19.819 0.953 29.313 1.834 5 9.054 12.17 15.932 12.831 29.313-5.11 5.92-20.656 11.052-16.488 20.149 4.819-9.34 24.77-12.055 34.809-5.49 0.722 6.613 2.374 12.286 3.668 18.321 13.211 4.912 23.685 16.752 40.315 12.825 4.736 5.65 2.479 18.289 9.152 21.989 10.606 0.837 7.369-12.181 18.327-10.991 4.284 5.49-1.861 21.399 9.164 20.155 7.39-2.379 4.063-15.475 9.163-20.155 15.31-4.031 24.241 0.319 38.472 0 2.147 2.736 2.269 7.489 5.495 9.163 1.091-3.271-5.374-7.61 0-9.163 7.677 0.253 8.173 7.698 18.316 5.495-0.165-7.842-3.668-13.42 0-20.155 35.188-2.07 38.581-35.938 56.809-54.97 22.425-4.08 37.381 9.021 51.303 7.336-6.498-3.889-16.917-3.85-20.155-10.992 3.854-4.885 13.403-6.9 9.152-14.665-11.664-0.677-15.287 6.696-21.983 10.992-5.826-3.938-17.512-2.021-20.145-9.158-2.104-13.701 6.157-17.038 10.992-23.823-1.432-8.942-7.622-13.15-7.336-23.812 1.256-7.297 13.394-3.712 12.831-12.831-0.484-7.45-11.972-3.91-16.487-7.324-2.324-13.403 0.947-14.791 1.828-27.49-12.379-3.502-23.382-8.376-21.994-25.64-14.384-2.104-26.983-5.997-25.641-23.823-3.326-4.614-12.038-3.844-14.659-9.163 2.104-0.595 6.3-7.991 1.828-9.164-4.086 11.107-25.199 2.886-31.146-1.828-7.159 1.394-7.126 9.979-16.499 9.158-0.781-3.486-3.942-4.599-3.656-9.158 12.721-8.656 37.821-4.934 51.302-12.831-0.132-19.638-9.384-39.044 1.829-58.626 1.839 0.005 2.181-1.481 3.667-1.828 2.963 3.139 7.666 4.548 14.659 3.662 16.025 22.793 44.144 23.305 65.962 38.477-11.729-21.323-61.722-20.078-54.97-65.962-11.983-2.814-9.482 16.543-18.316 10.992 4.119-14.814 20.167-17.688 27.479-29.313 44.265-12.826 73.021 27.545 115.425 12.825 12.368-50.592-79.068-40.134-82.449-76.959-2.082-22.787 18.448-15.771 32.986-21.98-4.449-14.543-26.19-3.276-32.986-12.823-0.815-16.088 14.824-15.722 23.823-21.995-2.975-17.864 11.333-19.167 18.326-31.149-4.438-9.607-21.399-6.694-23.822-18.313 9.967-14.505 24.296-45.509 47.635-29.324 10.484-8.442 17.699 0.275 25.65 7.33 6.543-8.158 13.745-3.896 23.823-1.831 12.182-15.824 41.688-27.915 31.146-54.964 0.606-7.327 7.578-8.296 7.324-16.496-13.402-10.407-14.955-32.671-34.813-36.636zM550.564 702.356c5.596-1.762 17.127-0.628 16.488 9.164-6.696 4.427-15.43-2.136-16.488-9.164z m120.932-87.944c8.547 3.051 8.459 14.747 12.82 21.983-9.02-2.28-22.347-12.467-12.82-21.983z m-241.863 97.109c-13.932 8.679-32.98 21.973-38.477 32.98 13.448-10.369 29.375-18.267 38.477-32.98z m-64.127 148.41c3.783-3.304 27.143 3.943 31.147-5.496-11.113-0.082-32.772-1.063-31.147 5.496z"  /></svg>