<?xml version="1.0" standalone="no"?><!DOCTYPE svg PUBLIC "-//W3C//DTD SVG 1.1//EN" "http://www.w3.org/Graphics/SVG/1.1/DTD/svg11.dtd"><svg class="icon" width="128px" height="128.00px" viewBox="0 0 1024 1024" version="1.1" xmlns="http://www.w3.org/2000/svg"><path fill="#2c2c2c" d="M781.376 473.472l-12.064-30.016a28.864 28.864 0 0 0-11.52-13.664l-27.424-17.12a28.768 28.768 0 0 1 4.48-51.136l29.984-12.064a28.864 28.864 0 0 0 13.696-11.52l17.12-27.424a28.8 28.8 0 0 1 51.136 4.48l12.064 30.016a28.832 28.832 0 0 0 11.52 13.664l27.424 17.088a28.8 28.8 0 0 1-4.48 51.2l-29.984 12.064a28.992 28.992 0 0 0-13.696 11.456l-17.12 27.456a28.8 28.8 0 0 1-51.136-4.48zM607.36 243.648l-8.256-20.544a19.68 19.68 0 0 0-7.84-9.344l-18.784-11.712a19.712 19.712 0 0 1 3.072-35.008l20.544-8.256a19.552 19.552 0 0 0 9.344-7.872l11.712-18.752a19.68 19.68 0 0 1 34.976 3.04l8.288 20.544a19.52 19.52 0 0 0 7.84 9.376l18.784 11.712a19.712 19.712 0 0 1-3.04 34.976l-20.544 8.288a19.68 19.68 0 0 0-9.376 7.84l-11.712 18.784a19.68 19.68 0 0 1-34.976-3.072zM207.968 875.68l-10.144-25.28a24.448 24.448 0 0 0-9.696-11.52l-23.104-14.4a24.256 24.256 0 0 1 3.776-43.072l25.28-10.176a24.32 24.32 0 0 0 11.52-9.632l14.4-23.136a24.256 24.256 0 0 1 43.072 3.776l10.144 25.28c1.92 4.768 5.344 8.768 9.664 11.52l23.136 14.4a24.256 24.256 0 0 1-3.776 43.072l-25.28 10.176a24.384 24.384 0 0 0-11.52 9.664l-14.4 23.104a24.256 24.256 0 0 1-43.072-3.776zM499.2 436.576l-1.376 0.224a133.856 133.856 0 0 0-72.448 35.968l-1.28 1.28-2.56 2.88a130.464 130.464 0 0 0-31.872 80.224l-0.096 3.072 0.096-1.376a46.912 46.912 0 0 0 11.84 35.136l266.784 278.848a134.368 134.368 0 0 0 197.6-6.304 133.856 133.856 0 0 0-17.728-191.936l-1.056-0.8-312.832-228.48a48.32 48.32 0 0 0-35.04-8.736z m3.52 61.792l307.52 224.576 1.568 1.312a72.448 72.448 0 0 1 3.52 106.464l-1.984 1.888a72.832 72.832 0 0 1-100.992-2.592L451.2 557.12l0.096-1.408c1.376-13.888 6.944-27.072 15.968-37.76l1.376-1.568-0.64 0.576a72.448 72.448 0 0 1 32.96-18.176l1.728-0.416zM262.496 138.112l2.784 0.128c16.416 1.088 29.632 9.664 24.576 23.616l0.192-0.704-0.448 1.92a37.44 37.44 0 0 0 12.672 36.704l1.664 1.28c4.896 3.36 11.264 6.464 20.64 10.208l5.44 2.08 22.752 8.384c6.656 2.496 12.224 4.736 17.664 7.104 23.68 10.304 41.856 22.208 56.256 38.464l2.656 2.976a152.704 152.704 0 0 1 37.056 116.928 21.952 21.952 0 0 1-17.728 18.656A105.696 105.696 0 0 0 383.04 441.6l0.448-0.512-2.528 4.096a232.96 232.96 0 0 0-25.856 61.568l-1.344 5.376-1.184 5.44a20.64 20.64 0 0 1-20.064 17.504c-36.064 2.464-74.88-3.424-108.8-23.808-50.176-30.208-77.952-86.656-75.168-173.248l0.096-5.248c2.4-93.696 28.224-153.024 69.024-180.288 15.776-10.56 32.896-15.264 47.68-14.24l-2.816-0.128z"  /></svg>