<?xml version="1.0" standalone="no"?><!DOCTYPE svg PUBLIC "-//W3C//DTD SVG 1.1//EN" "http://www.w3.org/Graphics/SVG/1.1/DTD/svg11.dtd"><svg class="icon" width="128px" height="128.00px" viewBox="0 0 1024 1024" version="1.1" xmlns="http://www.w3.org/2000/svg"><path d="M457.92 775.28V408l-19.36 8-255.44-106.72 125.84-52.4 188.72 78 51.84-19.12-190.96-79.6 80-33.28 96.72 40v-44.88l-96.72-40-309.6 128.72v412.72l309.6 129.04 232.72-97.04-40-28.24z m-38.72 0L168 670.48V348l251.2 104.8z m290.24-153.2l38.64 22.08v-67.2l-38.64 25.76z m116.08 51.6a77.12 77.12 0 0 0-56 24l-120.88-68.56a74.8 74.8 0 0 0 2.72-19.92 73.92 73.92 0 0 0-2.72-19.92l121.12-68.32a78.8 78.8 0 1 0-18.96-33.76l-121.12 68.32a77.44 77.44 0 1 0 0 107.28l121.12 68.32a77.04 77.04 0 0 0 74.72 97.36 77.44 77.44 0 0 0 0-154.8z m0-245.12a38.72 38.72 0 1 1-38.72 38.72 38.72 38.72 0 0 1 38.72-38.72zM574 648a38.72 38.72 0 1 1 38.64-38.64A38.72 38.72 0 0 1 574 648z m251.52 141.92a38.72 38.72 0 1 1 38.48-38.88 38.72 38.72 0 0 1-38.48 38.72z" fill="#0066FF" /><path d="M728 272l-173.36-65.92v41.12l119.44 45.44-190.4 72.4v41.04L728 313.12h0.72V272z" fill="#66FF00" /></svg>