<?xml version="1.0" standalone="no"?><!DOCTYPE svg PUBLIC "-//W3C//DTD SVG 1.1//EN" "http://www.w3.org/Graphics/SVG/1.1/DTD/svg11.dtd"><svg class="icon" width="128px" height="128.00px" viewBox="0 0 1024 1024" version="1.1" xmlns="http://www.w3.org/2000/svg"><path d="M725.1 366.1c28.5 0 54.8 8 74.3 21l0.1 0.1c22.8 15.2 37 37.3 37 62.7 0 25.3-14.1 47.4-37 62.6l-0.1 0.1c-19.4 12.9-45.7 21-74.3 21-28.5 0-54.8-8-74.3-21l-0.1-0.1c-22.8-15.2-37-37.3-37-62.6 0-25.3 14.1-47.4 37-62.7l0.1-0.1c19.5-12.9 45.8-21 74.3-21z m42.9 68.4c-10.6-7-25.7-11.3-42.9-11.3s-32.3 4.3-42.8 11.4c-7.1 4.7-11.4 10.2-11.4 15.3 0 5.1 4.4 10.6 11.4 15.3 10.5 7 25.7 11.4 42.8 11.4 17.2 0 32.3-4.4 42.8-11.4 7.1-4.7 11.4-10.2 11.4-15.3 0.1-5.1-4.3-10.6-11.3-15.4z" fill="#FFD500" /><path d="M792.6 620.8c-9.2-4.9-19.6-5.8-29-3.3-9.8 2.6-18.7 9-24.1 18.5-1.3 2.2-2.8 4.1-4.5 5.9-9.8 9.8-25 11-36.1 3.5L346.1 441.8c-9.1-5.3-14.2-14.8-14.2-24.6h-0.1c0-5.9 1.8-11.4 4.9-16 4.6-9 5.4-19.2 2.9-28.4-2.5-9.3-8.4-17.8-17.1-23.3-1.1-0.5-2.1-1.1-3.1-1.8-9-4.6-19.2-5.4-28.4-2.9-9.8 2.6-18.7 9-24.1 18.5l-0.7 1.1c-4.9 9.2-5.8 19.5-3.2 29 2.6 9.8 9 18.7 18.5 24.1 2.2 1.3 4.2 2.8 5.9 4.5 11.1 11.1 11.1 29.2 0 40.3-9.7 9.7-24.6 11-35.7 3.8-9.1-4.9-19.5-5.7-28.9-3.2-9.9 2.6-18.7 9-24.1 18.4-5.5 9.5-6.6 20.4-3.9 30.3 2.6 9.8 9 18.7 18.5 24.1l1.1 0.7c9.2 4.9 19.6 5.8 29 3.3 9.8-2.6 18.7-9 24.1-18.5 7.9-13.6 25.3-18.2 38.9-10.4l354.4 204.6c9.1 5.3 14.2 14.8 14.2 24.6h0.1c0 5.9-1.8 11.4-4.9 16-4.6 9-5.4 19.2-2.9 28.4 2.5 9.3 8.4 17.8 17.1 23.3 1.1 0.5 2.1 1.1 3.1 1.8 9 4.6 19.2 5.4 28.4 2.9 9.8-2.6 18.7-9 24.1-18.5 5.5-9.5 6.6-20.3 3.9-30.1-2.6-9.9-9-18.7-18.4-24.1-13.6-7.8-18.3-25.2-10.5-38.8 1.3-2.2 2.8-4.2 4.5-5.9l-0.1-0.1c9.8-9.8 25-11 36.1-3.5 9 4.6 19.2 5.4 28.5 2.9 9.8-2.6 18.7-9 24.1-18.5l0.7-1.1c4.9-9.2 5.8-19.6 3.3-29-2.6-9.8-9-18.7-18.5-24.1l-1-0.8z m-43.8-58.3c23.2-6.2 48.7-3.8 71.4 8.7l1.9 1c23.1 13.3 38.6 34.8 45 58.7 6.2 23.2 3.8 48.7-8.7 71.4l-1 1.9c-13.3 23-34.6 38.5-58.4 45 6.3 23.8 3.6 50.1-9.8 73.2s-34.8 38.6-58.7 45c-23.2 6.2-48.7 3.8-71.4-8.7l-2-1c-23.1-13.3-38.6-34.8-45-58.7-4-15-4.4-31-0.8-46.5L298.9 572c-11.7 10.9-25.8 18.5-40.8 22.6-23.2 6.2-48.7 3.8-71.4-8.7l-1.9-1c-23.1-13.3-38.6-34.8-45-58.7-6.4-23.8-3.6-50.1 9.7-73.2 13.3-23.1 34.7-38.7 58.4-45.1-6.1-22.8-3.8-47.9 8.2-70.3 0.7-1.7 1.6-3.3 2.7-4.8 13.4-22 34.3-36.8 57.5-43.1 23.2-6.2 48.7-3.8 71.4 8.7l1.9 1c23.1 13.3 38.6 34.8 45 58.7 4 15 4.4 31 0.8 46.6L708 585c11.7-10.8 25.8-18.5 40.8-22.5zM476.7 228.1c17 0 33 4.9 45 13l0.1-0.1c15.3 10.2 24.8 25.5 24.8 43.2 0 17.7-9.5 32.9-24.9 43.2-11.9 8-27.9 12.9-45.1 12.9-17.2 0-33.2-4.9-45.1-12.9-15.4-10.3-24.9-25.5-24.9-43.2 0-17.7 9.5-32.9 24.8-43.1v-0.1c12.1-7.9 28.1-12.9 45.3-12.9zM697.5 172.9c15.4 0 29.4 6.3 39.6 16.5l0.1-0.1c10.2 10.2 16.4 24.2 16.4 39.7 0 15.4-6.3 29.4-16.4 39.6l-0.1 0.1c-10.2 10.2-24.2 16.4-39.6 16.4-15.5 0-29.5-6.3-39.7-16.4l0.1-0.1c-10.2-10.2-16.5-24.2-16.5-39.6 0-15.5 6.3-29.5 16.4-39.7 10.2-10.1 24.2-16.4 39.7-16.4z m-0.6 56.7l0.5-0.5h-0.8l0.3-0.5 0.5 0.5-0.5 0.5z" fill="#E85D4E" /></svg>