<?xml version="1.0" standalone="no"?><!DOCTYPE svg PUBLIC "-//W3C//DTD SVG 1.1//EN" "http://www.w3.org/Graphics/SVG/1.1/DTD/svg11.dtd"><svg t="1679656002286" class="icon" viewBox="0 0 1024 1024" version="1.1" xmlns="http://www.w3.org/2000/svg" p-id="2174" xmlns:xlink="http://www.w3.org/1999/xlink" width="32" height="32"><path d="M726.528 961.28H295.936c-66.56 0-120.832-54.272-120.832-120.832v-573.44c0-16.896 13.824-30.72 30.72-30.72s30.72 13.824 30.72 30.72v573.44c0 32.768 26.624 59.392 59.392 59.392h430.848c32.768 0 59.392-26.624 59.392-59.392v-573.44c0-16.896 13.824-30.72 30.72-30.72s30.72 13.824 30.72 30.72v573.44c0 66.56-54.272 120.832-121.088 120.832z"  p-id="2175"></path><path d="M922.88 270.336H100.352c-16.896 0-30.72-13.824-30.72-30.72s13.824-30.72 30.72-30.72h822.528c16.896 0 30.72 13.824 30.72 30.72s-13.824 30.72-30.72 30.72z"  p-id="2176"></path><path d="M717.312 253.696c-16.896 0-30.72-13.824-30.72-30.72V147.712c0-4.352-3.584-8.192-8.192-8.192H346.112c-4.352 0-8.192 3.584-8.192 8.192V222.72c0 16.896-13.824 30.72-30.72 30.72s-30.72-13.824-30.72-30.72V147.712c0-38.4 31.232-69.632 69.632-69.632H678.4c38.4 0 69.632 31.232 69.632 69.632V222.72c0 17.152-13.824 30.976-30.72 30.976zM411.392 755.712c-16.896 0-30.72-13.824-30.72-30.72V418.304c0-16.896 13.824-30.72 30.72-30.72s30.72 13.824 30.72 30.72v306.432c0 17.152-13.824 30.976-30.72 30.976zM615.168 756.992c-16.896 0-30.72-13.824-30.72-30.72V418.304c0-16.896 13.824-30.72 30.72-30.72s30.72 13.824 30.72 30.72v307.968c0 16.896-13.824 30.72-30.72 30.72z" p-id="2177"></path></svg>