<?xml version="1.0" standalone="no"?><!DOCTYPE svg PUBLIC "-//W3C//DTD SVG 1.1//EN" "http://www.w3.org/Graphics/SVG/1.1/DTD/svg11.dtd"><svg t="1681411825800" class="icon" viewBox="0 0 1024 1024" version="1.1" xmlns="http://www.w3.org/2000/svg" p-id="42632" xmlns:xlink="http://www.w3.org/1999/xlink" width="128" height="128"><path d="M491.698117 390.571417l-40.626279 0c-11.232832 0-20.301372 9.139148-20.301372 20.240997 0 11.232832 9.06854 20.37198 20.301372 20.37198l40.626279 0c11.161201 0 20.301372-9.140171 20.301372-20.37198C511.999488 399.710564 502.859317 390.571417 491.698117 390.571417L491.698117 390.571417 491.698117 390.571417zM369.843838 390.571417l-40.614 0c-11.17348 0-20.313651 9.139148-20.313651 20.240997 0 11.232832 9.140171 20.37198 20.313651 20.37198l40.614 0c11.161201 0 20.313651-9.140171 20.313651-20.37198C390.156466 399.710564 381.005039 390.571417 369.843838 390.571417L369.843838 390.571417 369.843838 390.571417zM491.698117 756.051365l-40.626279 0c-11.232832 0-20.301372 9.06854-20.301372 20.301372 0 11.161201 9.06854 20.313651 20.301372 20.313651l40.626279 0c11.161201 0 20.301372-9.151427 20.301372-20.313651C511.999488 765.120928 502.859317 756.051365 491.698117 756.051365L491.698117 756.051365 491.698117 756.051365zM613.540116 756.051365l-40.614 0c-11.232832 0-20.383236 9.06854-20.383236 20.301372 0 11.161201 9.150404 20.313651 20.383236 20.313651l40.614 0c11.17348 0 20.24202-9.151427 20.24202-20.313651C633.783159 765.120928 624.713596 756.051365 613.540116 756.051365L613.540116 756.051365 613.540116 756.051365zM918.09446 634.197086c0 22.334681-18.219967 40.614-40.612976 40.614l-121.855302 0c-22.394033 0-40.612976-18.279319-40.612976-40.614L715.013205 553.028439c0-22.395056 18.219967-40.602743 40.612976-40.602743l121.855302 0c22.394033 0 40.612976 18.207687 40.612976 40.602743L918.09446 634.197086 918.09446 634.197086 918.09446 634.197086zM820.773947 787.715529c0 21.283746-17.416671 38.841633-38.84061 38.841633l-621.095697 0c-21.49557 0-38.84061-17.557888-38.84061-38.841633L121.99703 399.508973c0-21.35333 17.34504-38.82833 38.84061-38.82833l621.095697 0c21.424962 0 38.84061 17.475 38.84061 38.82833l0 77.658707-77.66894 0c-42.826388 0-77.646428 34.761712-77.646428 77.645404l0 77.599356c0 42.895973 34.82004 77.586053 77.646428 77.586053l77.66894 0L820.773947 787.715529 820.773947 787.715529 820.773947 787.715529zM105.904517 309.342394c0-22.334681 18.148335-40.626279 40.625256-40.626279l-11.31572 41.879829c-10.534937 1.394766-20.443611 4.812609-29.310559 9.979282L105.903493 309.342394 105.904517 309.342394 105.904517 309.342394zM207.942471 195.799408l423.322331 113.542986L177.649538 309.342394 207.942471 195.799408 207.942471 195.799408 207.942471 195.799408zM759.113609 233.623875l8.584516 70.208015-182.91189-48.926316L759.113609 233.623875 759.113609 233.623875 759.113609 233.623875zM836.866461 309.342394l0 11.232832c-8.382924-4.681626-17.523095-8.241708-27.431769-9.766434l-4.953825-41.252543C822.902424 273.469372 836.866461 289.656029 836.866461 309.342394L836.866461 309.342394 836.866461 309.342394zM877.48046 471.799416 877.48046 309.342394c0-43.688012-34.761712-79.205946-78.025051-80.814584l-4.882194-39.987736-314.87541 38.167275-300.367998-80.602759-21.979594 82.068134-10.818393 0c-44.88221 0-81.240279 36.357046-81.240279 81.168648l0 487.311715c0 44.88221 36.357046 81.241302 81.240279 81.241302l649.709385 0c44.811602 0 81.241302-36.358069 81.241302-81.241302L877.482507 715.355501c44.799322 0 81.227999-36.287461 81.227999-81.158415L958.710506 553.028439C958.70846 508.168742 922.279782 471.799416 877.48046 471.799416L877.48046 471.799416 877.48046 471.799416zM613.540116 390.571417l-40.614 0c-11.232832 0-20.383236 9.139148-20.383236 20.240997 0 11.232832 9.150404 20.37198 20.383236 20.37198l40.614 0c11.17348 0 20.24202-9.140171 20.24202-20.37198C633.783159 399.710564 624.713596 390.571417 613.540116 390.571417L613.540116 390.571417 613.540116 390.571417zM735.323786 756.051365l-40.554648 0c-11.30344 0-20.37198 9.06854-20.37198 20.301372 0 11.161201 9.06854 20.313651 20.37198 20.313651l40.554648 0c11.233855 0 20.301372-9.151427 20.301372-20.313651C755.625158 765.120928 746.557642 756.051365 735.323786 756.051365L735.323786 756.051365 735.323786 756.051365zM775.938809 573.270459c-11.232832 0-20.313651 9.150404-20.313651 20.312628s9.06854 20.301372 20.313651 20.301372c11.232832 0 20.301372-9.140171 20.301372-20.301372S787.170618 573.270459 775.938809 573.270459L775.938809 573.270459 775.938809 573.270459zM248.001839 390.571417l-40.626279 0c-11.161201 0-20.230764 9.139148-20.230764 20.240997 0 11.232832 9.06854 20.37198 20.230764 20.37198L248.001839 431.184393c11.232832 0 20.301372-9.140171 20.301372-20.37198C268.302187 399.710564 259.233648 390.571417 248.001839 390.571417L248.001839 390.571417 248.001839 390.571417zM694.769139 431.184393l40.554648 0c11.233855 0 20.301372-9.140171 20.301372-20.37198 0-11.102872-9.067516-20.240997-20.301372-20.240997l-40.554648 0c-11.30344 0-20.37198 9.139148-20.37198 20.240997C674.397159 422.045245 683.465698 431.184393 694.769139 431.184393L694.769139 431.184393 694.769139 431.184393zM369.843838 756.051365l-40.614 0c-11.17348 0-20.313651 9.06854-20.313651 20.301372 0 11.161201 9.140171 20.313651 20.313651 20.313651l40.614 0c11.161201 0 20.313651-9.151427 20.313651-20.313651C390.156466 765.120928 381.005039 756.051365 369.843838 756.051365L369.843838 756.051365 369.843838 756.051365zM248.001839 756.051365l-40.626279 0c-11.161201 0-20.230764 9.06854-20.230764 20.301372 0 11.161201 9.06854 20.313651 20.230764 20.313651L248.001839 796.666388c11.232832 0 20.301372-9.151427 20.301372-20.313651C268.302187 765.120928 259.233648 756.051365 248.001839 756.051365L248.001839 756.051365 248.001839 756.051365zM248.001839 756.051365"  p-id="42633"></path></svg>