<?xml version="1.0" standalone="no"?><!DOCTYPE svg PUBLIC "-//W3C//DTD SVG 1.1//EN" "http://www.w3.org/Graphics/SVG/1.1/DTD/svg11.dtd"><svg t="1684595178482" class="icon" viewBox="0 0 1024 1024" version="1.1" xmlns="http://www.w3.org/2000/svg" p-id="9289" xmlns:xlink="http://www.w3.org/1999/xlink" width="128" height="128"><path d="M512 149.333333A362.666667 362.666667 0 1 1 149.333333 512 363.093333 363.093333 0 0 1 512 149.333333M512 85.333333a426.666667 426.666667 0 1 0 426.666667 426.666667A426.666667 426.666667 0 0 0 512 85.333333z"  p-id="9290"></path><path d="M469.333333 725.333333a31.573333 31.573333 0 0 1-22.613333-9.386666L298.666667 566.613333a32 32 0 0 1 0-45.226666 32 32 0 0 1 45.226666 0L469.333333 646.826667l253.44-253.44a32 32 0 0 1 45.226667 0 32 32 0 0 1 0 45.226666l-276.053333 276.053334A31.573333 31.573333 0 0 1 469.333333 725.333333z" p-id="9291"></path></svg>