<?xml version="1.0" standalone="no"?><!DOCTYPE svg PUBLIC "-//W3C//DTD SVG 1.1//EN" "http://www.w3.org/Graphics/SVG/1.1/DTD/svg11.dtd"><svg t="1684594822825" class="icon" viewBox="0 0 1024 1024" version="1.1" xmlns="http://www.w3.org/2000/svg" p-id="4694" xmlns:xlink="http://www.w3.org/1999/xlink" width="128" height="128"><path d="M470.272 569.344H241.152c-16.896 0-30.72-13.824-30.72-30.72s13.824-30.72 30.72-30.72h229.12c16.896 0 30.72 13.824 30.72 30.72s-13.824 30.72-30.72 30.72zM468.992 675.584H239.872c-16.896 0-30.72-13.824-30.72-30.72s13.824-30.72 30.72-30.72h229.12c16.896 0 30.72 13.824 30.72 30.72s-13.824 30.72-30.72 30.72z"  p-id="4695"></path><path d="M354.304 558.08c-8.96 0-17.408-3.84-23.296-10.752l-119.04-138.496c-11.008-12.8-9.728-32.256 3.328-43.264 12.8-11.008 32.256-9.728 43.264 3.328l94.976 110.592 90.112-110.848c10.752-13.056 29.952-15.104 43.264-4.352 13.056 10.752 15.104 29.952 4.352 43.264l-113.408 139.264c-5.632 7.168-14.336 11.264-23.296 11.264h-0.256z"  p-id="4696"></path><path d="M354.048 756.48c-16.896 0-30.72-13.824-30.72-30.72v-206.336c0-16.896 13.824-30.72 30.72-30.72s30.72 13.824 30.72 30.72v206.336c0 16.896-13.568 30.72-30.72 30.72zM789.76 489.216h-188.928c-16.896 0-30.72-13.824-30.72-30.72s13.824-30.72 30.72-30.72h188.928c16.896 0 30.72 13.824 30.72 30.72s-13.824 30.72-30.72 30.72zM789.76 646.912h-188.928c-16.896 0-30.72-13.824-30.72-30.72s13.824-30.72 30.72-30.72h188.928c16.896 0 30.72 13.824 30.72 30.72s-13.824 30.72-30.72 30.72z"  p-id="4697"></path><path d="M885.504 878.336h-747.52c-50.944 0-92.16-41.216-92.16-92.16V242.688c0-50.944 41.216-92.16 92.16-92.16h35.84c30.72 0 55.552 24.064 56.32 54.784l0.256 6.912c0.256 16.896 14.08 30.464 30.72 30.464h1.536c16.896 0 30.72-13.824 30.72-30.72v-5.12c0-30.976 25.344-56.32 56.32-56.32H422.4c30.72 0 56.064 25.088 56.32 55.808v6.656c0 16.896 13.824 30.464 30.72 30.464H513.792c16.896 0 30.464-13.824 30.464-30.72v-5.888c0-30.976 25.344-56.32 56.32-56.32h73.216c30.976 0 56.32 25.344 56.32 56.32v5.888c0 16.896 13.824 30.72 30.72 30.72s30.72-13.824 30.72-30.72v-5.888c0-30.976 25.344-56.32 56.32-56.32h37.632c50.944 0 92.16 41.216 92.16 92.16v543.488c0 50.688-41.472 92.16-92.16 92.16zM137.984 211.968c-16.896 0-30.72 13.824-30.72 30.72v543.488c0 16.896 13.824 30.72 30.72 30.72h747.52c16.896 0 30.72-13.824 30.72-30.72V242.688c0-16.896-13.824-30.72-30.72-30.72h-32.512v0.768c0 50.688-41.216 92.16-92.16 92.16s-92.16-41.216-92.16-92.16v-0.768h-62.976v0.768c0 50.432-41.216 91.904-91.648 92.16H509.44c-50.432 0-91.904-40.96-92.16-91.648v-1.536h-62.72c0 50.688-41.472 92.16-92.16 92.16h-1.536c-49.92 0-91.136-40.448-92.16-90.368v-1.536h-30.72z"  p-id="4698"></path></svg>