<?xml version="1.0" standalone="no"?><!DOCTYPE svg PUBLIC "-//W3C//DTD SVG 1.1//EN" "http://www.w3.org/Graphics/SVG/1.1/DTD/svg11.dtd"><svg t="1684594969295" class="icon" viewBox="0 0 1024 1024" version="1.1" xmlns="http://www.w3.org/2000/svg" p-id="4851" xmlns:xlink="http://www.w3.org/1999/xlink" width="128" height="128"><path d="M879.872 867.584H143.872c-56.576 0-102.4-45.824-102.4-102.4V247.296c0-56.576 45.824-102.4 102.4-102.4h736c56.576 0 102.4 45.824 102.4 102.4v517.888c0 56.32-45.824 102.4-102.4 102.4zM143.872 206.336c-22.528 0-40.96 18.432-40.96 40.96v517.888c0 22.528 18.432 40.96 40.96 40.96h736c22.528 0 40.96-18.432 40.96-40.96V247.296c0-22.528-18.432-40.96-40.96-40.96H143.872z" p-id="4852"></path><path d="M950.016 387.328H75.776c-16.896 0-30.72-13.824-30.72-30.72s13.824-30.72 30.72-30.72h874.496c16.896 0 30.72 13.824 30.72 30.72s-13.824 30.72-30.976 30.72zM951.296 486.656H77.056c-16.896 0-30.72-13.824-30.72-30.72s13.824-30.72 30.72-30.72h874.496c16.896 0 30.72 13.824 30.72 30.72s-13.824 30.72-30.976 30.72zM488.192 734.976c-4.864 0-9.728-1.024-14.08-3.584-15.104-7.936-20.992-26.368-13.056-41.472l63.488-121.6c7.936-15.104 26.368-20.992 41.472-13.056 15.104 7.936 20.992 26.368 13.056 41.472l-63.488 121.6c-5.632 10.752-16.128 16.64-27.392 16.64zM619.52 734.976c-4.864 0-9.728-1.024-14.08-3.584-15.104-7.936-20.992-26.368-13.056-41.472l63.488-121.6c7.936-15.104 26.368-20.992 41.472-13.056 15.104 7.936 20.992 26.368 13.056 41.472l-63.488 121.6c-5.632 10.752-16.128 16.64-27.392 16.64zM750.848 734.976c-4.864 0-9.728-1.024-14.08-3.584-15.104-7.936-20.992-26.368-13.056-41.472l63.488-121.6c7.936-15.104 26.368-20.992 41.472-13.056 15.104 7.936 20.992 26.368 13.056 41.472L778.24 718.592c-5.632 10.496-16.384 16.384-27.392 16.384z" p-id="4853"></path></svg>